# xmcd CD database file
#
# Track frame offsets:
#	150
#	11647
#	26750
#	39055
#	53572
#	66567
#	79402
#	91500
#	104875
#	118042
#	130432
#	143677
#	156642
#	169092
#	183240
#	195545
#	209535
#	223132
#	236565
#	249312
#	262100
#	274845
#	288447
#	298255
#	311172
#
# Disc length: 4314 seconds
#
# Revision: 0
# Processed by: cddbd v1.4PL0 Copyright (c) Steve Scherf et al.
# Submitted via: CDex 1.40Release
#
DISCID=8710d819
DTITLE=Memphis Slim - Every Day I Have The Blues
DYEAR=1999
DGENRE=Blues
TTITLE0=Nobody Loves Me (Every Day I Have The Blues)
TTITLE1=Beer Drinking Woman
TTITLE2=Old taylor
TTITLE3=Lend Me Your Love
TTITLE4=Empty Room Blues
TTITLE5=Diggin' My Potatoes No. 2
TTITLE6=Blues At Midnight
TTITLE7=Two Of A Kind
TTITLE8=You Didn't Mean Me No Good
TTITLE9=Kilroy Has Been Here
TTITLE10=Last Pair Of Shoes Blues
TTITLE11=Angel Child
TTITLE12=The Jive Blues
TTITLE13=Grinder Man Blues
TTITLE14=Whiskey And Gin Blues
TTITLE15=I Believe I'll Settle Down
TTITLE16=Miss Ora Lee Blues
TTITLE17=You Got To Help Me Some
TTITLE18=Maybe I'll Lend You A Dime
TTITLE19=You Gonna Worry Too Much
TTITLE20=Me, Myself And I
TTITLE21=I See My Great Mistake
TTITLE22=You And I
TTITLE23=Throw This Poor Dog A Bone
TTITLE24=Rockin' The House
EXTD=YEAR: 1999 ID3G: 0
EXTT0=
EXTT1=
EXTT2=
EXTT3=
EXTT4=
EXTT5=
EXTT6=
EXTT7=
EXTT8=
EXTT9=
EXTT10=
EXTT11=
EXTT12=
EXTT13=
EXTT14=
EXTT15=
EXTT16=
EXTT17=
EXTT18=
EXTT19=
EXTT20=
EXTT21=
EXTT22=
EXTT23=
EXTT24=
PLAYORDER=
